#!OML:ASF E:/inclinewalkrobotboard/Project1/Captureday1/Session1/subject1.ASF
:FULLY-SPECIFIED
:DEGREES
201
root 0 0 0 -1.4078686268691136 21.457430734574803 8.588209222492294
lowerback -4.031304496108033 -6.062990517444501 -6.360553226500306
upperback -8.393703697417775 -7.5079851096984775 6.982397323432
thorax -6.089032913420954 -2.6192741310249783 10.96977433085976
lowerneck -5.5970812165338115 -8.877510725536798 -7.672467224217427
upperneck 32.220746463852166 -11.46292068673901 1.8759839940155545
head 12.13658163952969 -5.83552893683388 0.36847016226556484
rclavicle -3.746791655539024E-15 -2.4436762359640277E-15
rhumerus -18.9426869769201 -26.938520506101327 -16.66700008644309
rradius 62.390185156308874
rwrist -12.245362899747676
rhand -26.617674871497222 32.37868967543128
rfingers 7.1250199999999655
rthumb -0.0333491724108228 1.60495633713116
lclavicle 1.8108241261323264E-16 -3.87932531589829E-15
lhumerus 22.312644233876984 3.4382676837556034 42.410968620289154
lradius 63.81494994497564
lwrist -7.004878169615871
lhand -14.227357988298477 7.453249939735102
lfingers 7.1250199999999655
lthumb 11.75019882875229 35.62432677261171
rfemur 139.1042792571538 -154.94361495483952 -120.4303516474188
rtibia 28.47910444975427
rfoot -13.851208112289079 -49.79426934903084
rtoes 4.606295894132799
lfemur -82.0665893277118 24.021064729470552 -57.056123052425704
ltibia 68.28281006171919
lfoot 12.474822362616695 31.96926413393986
ltoes 0.09579545332576345
202
root 0 0 0 -1.417909791636589 21.44941736123847 8.592242138950612
lowerback -4.022516336619354 -6.062538110676002 -6.36126620106598
upperback -8.3899448588607 -7.5075277623696905 6.981146022316912
thorax -6.090464866659414 -2.618788528886153 10.968851512559661
lowerneck -5.598460416900887 -8.875392526361962 -7.670678417969843
upperneck 32.21440473404546 -11.45973403180014 1.87641135265211
head 12.134202938479605 -5.834053125838926 0.3685745673715686
rclavicle -3.758912045018339E-15 -2.4455838082608E-15
rhumerus -18.97201515372091 -26.939194534837853 -16.66267734692579
rradius 62.38895347239614
rwrist -12.239190727297576
rhand -26.61887863534441 32.38369944421923
rfingers 7.1250199999999655
rthumb -0.03452718585591441 1.6100778794971369
lclavicle 1.4976708015468736E-16 -3.897906242827638E-15
lhumerus 22.166423075667346 3.3785238310972288 42.644361730447415
lradius 63.82684678377446
lwrist -6.882872028310139
lhand -14.280467492573772 7.458022946998746
lfingers 7.125019999999965
lthumb 11.699248171925289 35.632535227894365
rfemur 138.8494218586819 -154.69072954454677 -120.17111150771638
rtibia 28.4285950808585
rfoot -13.89428567318435 -49.66652270608117
rtoes 4.539369833922528
lfemur -82.08353322160896 24.009680216825384 -57.083525696733105
ltibia 68.2042576427917
lfoot 12.551980200448735 31.999148473543837
ltoes 0.11087689094492426
203
root 0 0 0 -1.412516845657695 21.453196026647294 8.588783640008911
lowerback -4.02680103940519 -6.062727727942111 -6.360232465227415
upperback -8.391355048923517 -7.507724355248508 6.981894434667311
thorax -6.089217813542445 -2.6191396480568425 10.969081213188765
lowerneck -5.598151282030311 -8.876658903153647 -7.6716246921650635
upperneck 32.21845514187106 -11.461677418301528 1.876060953921895
head 12.135838412900425 -5.834947296062061 0.3684643896215182
rclavicle -3.739408228755617E-15 -2.433633800106203E-15
rhumerus -18.9475563888492 -26.93968883467182 -16.670871916109952
rradius 62.39434521177214
rwrist -12.25160768568415
rhand -26.61727392577324 32.38118422489913
rfingers 7.1250199999999655
rthumb -0.03302878337004955 1.6078659875728896
lclavicle 2.2347458091964426E-16 -3.8739083146192825E-15
lhumerus 22.107273625644115 3.33534922228265 42.67285244124436
lradius 63.843702602924274
lwrist -6.854004543948421
lhand -14.270234660348049 7.45955533618249
lfingers 7.125019999999965
lthumb 11.708678760370802 35.629875250001405
rfemur 138.96567264637838 -154.82294464675522 -120.29535167771029
rtibia 28.456199659921737
rfoot -13.912804018193306 -49.68671168655089
rtoes 4.564407422368035
lfemur -82.07161576354561 24.015144161842336 -57.07736615564073
ltibia 68.24669189557648
lfoot 12.51659082618156 31.98611714747813
ltoes 0.09209065618162349
204
root 0 0 0 -1.4106339923852644 21.451791776209493 8.586938897098294
lowerback -4.027785432363274 -6.062716615073612 -6.359252751404574
upperback -8.39168784370467 -7.507710403163937 6.982103210369699
thorax -6.088911229121454 -2.6192727743217254 10.968751715437994
lowerneck -5.598260157623817 -8.876722292383699 -7.671695402631726
upperneck 32.219439641952874 -11.461914683599531 1.8762500477558792
head 12.136290211738817 -5.835024741797194 0.36853207013586187
rclavicle -3.7313940175654326E-15 -2.4310561551361972E-15
rhumerus -18.940635034802746 -26.939638041572884 -16.674183370325196
rradius 62.396542962618526
rwrist -12.256129752531088
rhand -26.617373964687932 32.38102848461146
rfingers 7.1250199999999655
rthumb -0.03313270466275853 1.6077409644115264
lclavicle 2.4360157015388376E-16 -3.868076393691839E-15
lhumerus 22.092147697048183 3.3103189272889306 42.66821176476754
lradius 63.85311881446471
lwrist -6.841922426535035
lhand -14.245392764778622 7.463714522869463
lfingers 7.125019999999965
lthumb 11.732247266581952 35.62883146670439
rfemur 139.02782992490864 -154.887886873087 -120.35872036171921
rtibia 28.46972791394684
rfoot -13.91028235688445 -49.705614175372034
rtoes 4.5773804783710474
lfemur -82.07448571148703 24.02046380790143 -57.0615303731166
ltibia 68.26909946434242
lfoot 12.508337584239992 31.97381009491246
ltoes 0.09904110773473462
205
root 0 0 0 -1.4072616576791361 21.446721017827617 8.584535541208597
lowerback -4.029511581490985 -6.062607704648913 -6.35826633495447
upperback -8.39231805746156 -7.507598041239445 6.982184422127984
thorax -6.088511294014073 -2.619378663014836 10.96830476260412
lowerneck -5.598376377779151 -8.87656424798437 -7.671597057588345
upperneck 32.220743801938774 -11.462057178114783 1.8769642971022402
head 12.136880003722823 -5.834985365272973 0.3687718265253239
rclavicle -3.731916601970343E-15 -2.4334000970401703E-15
rhumerus -18.931551213670282 -26.9386716548005 -16.67497239908058
rradius 62.39926057831228
rwrist -12.259587818769582
rhand -26.617941861854856 32.38069457912882
rfingers 7.1250199999999655
rthumb -0.03366945039511293 1.607313743734693
lclavicle 2.3567770542979744E-16 -3.870850261588468E-15
lhumerus 22.128469212393643 3.3026451600229225 42.62050605916298
lradius 63.85504844725287
lwrist -6.852841408738314
lhand -14.208834225259096 7.467251572623308
lfingers 7.125019999999965
lthumb 11.767118770957623 35.62646457318558
rfemur 139.11115663381605 -154.96935570323745 -120.43891994783326
rtibia 28.474012151096673
rfoot -13.90001813989868 -49.732071244730946
rtoes 4.59055120052485
lfemur -82.07631046610314 24.02392996963799 -57.04492230442041
ltibia 68.28481859081694
lfoot 12.489893084575666 31.964617273934362
ltoes 0.10321951775511451
